<svg width="137" height="34" viewBox="0 0 137 34" fill="none" xmlns="http://www.w3.org/2000/svg">
<g clip-path="url(#clip0_5707_662)">
<path fill-rule="evenodd" clip-rule="evenodd" d="M15.7667 0.327895L7.1235 3.90799C6.06799 4.34518 5.22946 5.18371 4.79227 6.23922L1.21217 14.8824C0.774979 15.9378 0.774979 17.1237 1.21217 18.1792L4.79227 26.8224C5.22946 27.8778 6.06799 28.7164 7.1235 29.1536L15.7667 32.7337C16.8221 33.1709 18.008 33.1709 19.0635 32.7337L27.7067 29.1536C28.7621 28.7164 29.6007 27.8778 30.0379 26.8224L33.618 18.1792C34.0552 17.1237 34.0552 15.9378 33.618 14.8824L30.0379 6.23922C29.6007 5.18371 28.7621 4.34518 27.7067 3.90799L19.0635 0.327895C18.008 -0.109298 16.8221 -0.109298 15.7667 0.327895ZM19.7824 22.2909L23.7789 26.2874C19.9348 28.8003 14.9317 28.8069 11.0815 26.3071L15.0834 22.3054C16.5877 22.9121 18.2811 22.9072 19.7824 22.2909ZM7.65835 10.1671L11.6549 14.1637C11.0177 15.7159 11.0342 17.4735 11.7044 19.0151L7.72468 22.9948C5.13921 19.1278 5.11706 14.0548 7.65835 10.1671ZM27.1289 22.9596L23.1434 18.9741C23.7912 17.4541 23.8066 15.7289 23.1897 14.1991L27.1914 10.1972C29.7053 14.0691 29.6845 19.107 27.1289 22.9596ZM23.8791 6.8404L19.8994 10.8201C18.3324 10.1389 16.5424 10.1331 14.9716 10.8025L10.9861 6.81709C14.8821 4.23259 19.9904 4.24037 23.8791 6.8404Z" fill="#56F5CA"/>
</g>
<path d="M43.8874 22.4152V11.1967H47.8862V12.7853C48.3317 12.1718 48.8612 11.697 49.4747 11.3611C50.0882 11.0178 50.7346 10.8461 51.4138 10.8461C51.8301 10.8461 52.2647 10.9119 52.7175 11.0433C53.1704 11.1748 53.5465 11.3464 53.846 11.5583L52.1807 14.9216C51.9178 14.739 51.611 14.5929 51.2605 14.4834C50.9099 14.3665 50.5849 14.3081 50.2854 14.3081C49.8764 14.3081 49.4857 14.414 49.1132 14.6258C48.748 14.8376 48.4522 15.1151 48.2258 15.4584C47.9994 15.7944 47.8862 16.1596 47.8862 16.554V22.4152H43.8874ZM60.8712 22.7657C59.6076 22.7657 58.4683 22.5138 57.4531 22.0098C56.4378 21.4986 55.6344 20.7974 55.0428 19.9064C54.4512 19.008 54.1554 17.9745 54.1554 16.8059C54.1554 15.6374 54.4512 14.6075 55.0428 13.7165C55.6344 12.8181 56.4378 12.117 57.4531 11.613C58.4683 11.1018 59.6076 10.8461 60.8712 10.8461C62.1347 10.8461 63.2741 11.1018 64.2893 11.613C65.3045 12.117 66.1079 12.8181 66.6995 13.7165C67.2911 14.6075 67.5869 15.6374 67.5869 16.8059C67.5869 17.9745 67.2911 19.008 66.6995 19.9064C66.1079 20.7974 65.3045 21.4986 64.2893 22.0098C63.2741 22.5138 62.1347 22.7657 60.8712 22.7657ZM60.8712 19.3695C61.3386 19.3695 61.7622 19.26 62.142 19.0409C62.5291 18.8218 62.8359 18.5223 63.0623 18.1425C63.2887 17.7554 63.4019 17.3099 63.4019 16.8059C63.4019 16.302 63.2887 15.8565 63.0623 15.4694C62.8359 15.0823 62.5291 14.7828 62.142 14.571C61.7622 14.3519 61.3386 14.2424 60.8712 14.2424C60.4037 14.2424 59.9765 14.3519 59.5894 14.571C59.2096 14.7828 58.9065 15.0823 58.6801 15.4694C58.4537 15.8565 58.3404 16.302 58.3404 16.8059C58.3404 17.3099 58.4537 17.7554 58.6801 18.1425C58.9065 18.5223 59.2096 18.8218 59.5894 19.0409C59.9765 19.26 60.4037 19.3695 60.8712 19.3695ZM77.9184 22.7657C77.2246 22.7657 76.56 22.6343 75.9245 22.3713C75.2964 22.1084 74.7304 21.7359 74.2264 21.2539V22.4152H70.2277V3.57169H74.2264V12.2265C74.6647 11.7883 75.1942 11.4487 75.815 11.2077C76.4431 10.9667 77.1114 10.8461 77.8198 10.8461C78.9008 10.8461 79.8649 11.1091 80.7121 11.6349C81.5593 12.1535 82.224 12.862 82.706 13.7603C83.188 14.6587 83.4291 15.6739 83.4291 16.8059C83.4291 17.9745 83.1771 19.008 82.6731 19.9064C82.1765 20.8047 81.5119 21.5059 80.6792 22.0098C79.8466 22.5138 78.9264 22.7657 77.9184 22.7657ZM76.6914 19.3805C77.1881 19.3805 77.6226 19.2709 77.9951 19.0518C78.3749 18.8254 78.6707 18.5223 78.8825 18.1425C79.1016 17.7554 79.2112 17.3209 79.2112 16.8388C79.2112 16.3349 79.098 15.8893 78.8716 15.5022C78.6525 15.1078 78.353 14.7974 77.9732 14.571C77.6007 14.3446 77.1698 14.2314 76.6805 14.2314C76.1984 14.2314 75.7639 14.3446 75.3768 14.571C74.997 14.7974 74.6939 15.1042 74.4675 15.4913C74.2484 15.8784 74.1388 16.3239 74.1388 16.8279C74.1388 17.3099 74.2484 17.7445 74.4675 18.1316C74.6866 18.5187 74.986 18.8254 75.3658 19.0518C75.7529 19.2709 76.1948 19.3805 76.6914 19.3805ZM92.0942 22.7657C89.9177 22.7657 88.3474 22.3531 87.3833 21.5278C86.4192 20.7025 85.9372 19.3622 85.9372 17.5071V11.1967H89.9359V16.5211C89.9359 17.624 90.0966 18.4018 90.418 18.8546C90.7467 19.3001 91.3054 19.5229 92.0942 19.5229C92.8903 19.5229 93.449 19.3001 93.7704 18.8546C94.0917 18.4018 94.2524 17.624 94.2524 16.5211V11.1967H98.2512V17.5071C98.2512 19.3622 97.7691 20.7025 96.805 21.5278C95.841 22.3531 94.2707 22.7657 92.0942 22.7657ZM104.829 22.7657C103.872 22.7657 103.011 22.6416 102.244 22.3933C101.484 22.1449 100.838 21.7797 100.305 21.2977L101.926 18.5698C102.43 18.9788 102.927 19.2928 103.416 19.512C103.913 19.7238 104.387 19.8297 104.84 19.8297C105.059 19.8297 105.242 19.8004 105.388 19.742C105.534 19.6836 105.644 19.5959 105.717 19.4791C105.797 19.3622 105.837 19.2162 105.837 19.0409C105.837 18.8071 105.764 18.6246 105.618 18.4931C105.479 18.3543 105.253 18.2192 104.939 18.0877C104.632 17.9563 104.23 17.7883 103.734 17.5838C103.281 17.3866 102.854 17.1675 102.452 16.9265C102.05 16.6854 101.722 16.3787 101.466 16.0062C101.218 15.6337 101.093 15.159 101.093 14.582C101.093 13.8516 101.302 13.2089 101.718 12.6538C102.134 12.0914 102.708 11.6532 103.438 11.3391C104.176 11.0251 105.026 10.8681 105.991 10.8681C106.524 10.8681 107.104 10.9374 107.732 11.0762C108.368 11.2077 109.076 11.4122 109.858 11.6897L108.565 14.3081C107.528 13.7968 106.681 13.5412 106.023 13.5412C105.673 13.5412 105.399 13.6069 105.202 13.7384C105.005 13.8699 104.906 14.0342 104.906 14.2314C104.906 14.4432 105.037 14.6404 105.3 14.823C105.571 14.9983 105.892 15.1553 106.264 15.2941C106.637 15.4329 106.973 15.557 107.272 15.6666C107.798 15.8492 108.269 16.0646 108.686 16.3129C109.102 16.5613 109.431 16.8899 109.672 17.2989C109.913 17.7006 110.033 18.2338 110.033 18.8984C110.033 19.7311 109.829 20.4359 109.42 21.0129C109.018 21.5825 108.43 22.0171 107.656 22.3166C106.882 22.616 105.939 22.7657 104.829 22.7657ZM116.963 22.7657C115.751 22.7657 114.805 22.3859 114.126 21.6264C113.447 20.8595 113.107 19.7895 113.107 18.4164V14.2314H111.475V11.1967H113.107V6.98981H117.106V11.1967H119.45V14.2314H117.106V18.1206C117.106 18.4712 117.175 18.7378 117.314 18.9204C117.46 19.1029 117.672 19.1942 117.949 19.1942C118.271 19.1942 118.588 19.0774 118.902 18.8437L119.899 22.0536C119.476 22.2727 119.005 22.4444 118.486 22.5685C117.968 22.7 117.46 22.7657 116.963 22.7657ZM127.201 22.7657C126.171 22.7657 125.236 22.5101 124.396 21.9989C123.556 21.4803 122.888 20.7718 122.391 19.8735C121.894 18.9678 121.646 17.938 121.646 16.784C121.646 15.6666 121.884 14.6623 122.358 13.7713C122.833 12.8729 123.487 12.1608 124.319 11.6349C125.152 11.1091 126.112 10.8461 127.201 10.8461C127.909 10.8461 128.581 10.9667 129.216 11.2077C129.859 11.4487 130.403 11.7883 130.849 12.2265V11.1967H134.848V22.4152H130.849V21.2539C130.323 21.7505 129.753 22.1267 129.14 22.3823C128.533 22.6379 127.887 22.7657 127.201 22.7657ZM128.406 19.3805C128.902 19.3805 129.341 19.2709 129.72 19.0518C130.1 18.8254 130.396 18.5187 130.608 18.1316C130.82 17.7445 130.925 17.3026 130.925 16.8059C130.925 16.3093 130.816 15.8674 130.597 15.4803C130.385 15.0932 130.089 14.7901 129.709 14.571C129.33 14.3446 128.895 14.2314 128.406 14.2314C127.924 14.2314 127.489 14.3446 127.102 14.571C126.722 14.7901 126.419 15.0932 126.193 15.4803C125.974 15.8674 125.864 16.3093 125.864 16.8059C125.864 17.2953 125.974 17.7372 126.193 18.1316C126.412 18.5187 126.711 18.8254 127.091 19.0518C127.478 19.2709 127.916 19.3805 128.406 19.3805Z" fill="#56F5CA"/>
<defs>
<clipPath id="clip0_5707_662">
<rect width="33.0616" height="33.0616" fill="white" transform="translate(0.884277)"/>
</clipPath>
</defs>
</svg>
